<svg aria-hidden="true" style="width:0;height:0;position:absolute;overflow:hidden" xmlns="http://www.w3.org/2000/svg"><defs><symbol id="icomoon-ignore" viewBox="0 0 576 512"><path d="M544 64H32C14.4 64 0 78.4 0 96v320c0 17.6 14.4 32 32 32h512c17.6 0 32-14.4 32-32V96c0-17.6-14.4-32-32-32zm-224 64h64v64h-64v-64zm96 96v64h-64v-64h64zm-192-96h64v64h-64v-64zm96 96v64h-64v-64h64zm-192-96h64v64h-64v-64zm96 96v64h-64v-64h64zM64 128h32v64H64v-64zm0 96h64v64H64v-64zm32 160H64v-64h32v64zm288 0H128v-64h256v64zm128 0h-96v-64h96v64zm0-96h-64v-64h64v64zm0-96h-96v-64h96v64z"/></symbol><symbol id="icon-search" viewBox="0 0 24 24"><path d="M15.5 14h-.79l-.28-.27A6.471 6.471 0 0 0 16 9.5 6.5 6.5 0 1 0 9.5 16c1.61 0 3.09-.59 4.23-1.57l.27.28v.79l5 4.99L20.49 19l-4.99-5zm-6 0C7.01 14 5 11.99 5 9.5S7.01 5 9.5 5 14 7.01 14 9.5 11.99 14 9.5 14z"/></symbol><symbol id="icon-dictaphone" viewBox="0 0 32 32"><path fill="none" d="M0 0h24v24H0z"/><path fill="#4285F4" d="M12 15c1.66 0 2.99-1.34 2.99-3L15 5c0-1.66-1.34-3-3-3S9 3.34 9 5v7c0 1.66 1.34 3 3 3z"/><path fill="#34A853" d="M11 18.92h2V22h-2z"/><path fill="#F4B400" d="M7 12H5c0 1.93.78 3.68 2.05 4.95l1.41-1.41C7.56 14.63 7 13.38 7 12z"/><path fill="#EA4335" d="M12 17c-1.38 0-2.63-.56-3.54-1.47l-1.41 1.41A6.99 6.99 0 0 0 12.01 19c3.87 0 6.98-3.14 6.98-7h-2c0 2.76-2.23 5-4.99 5z"/></symbol><symbol id="icon-email" viewBox="0 0 32 32"><path d="M26.667 5.333H5.334A2.663 2.663 0 0 0 2.681 8l-.013 16c0 1.467 1.2 2.667 2.667 2.667h21.333c1.467 0 2.667-1.2 2.667-2.667V8c0-1.467-1.2-2.667-2.667-2.667zM26.133 11l-9.427 5.893a1.346 1.346 0 0 1-1.413 0L5.866 11a1.132 1.132 0 1 1 1.2-1.92l8.933 5.587 8.933-5.587a1.132 1.132 0 1 1 1.2 1.92z"/></symbol><symbol id="icon-person" viewBox="0 0 32 32"><path d="M16 16c2.947 0 5.333-2.387 5.333-5.333S18.946 5.334 16 5.334c-2.947 0-5.333 2.387-5.333 5.333S13.054 16 16 16zm0 2.667c-3.56 0-10.667 1.787-10.667 5.333v1.333c0 .733.6 1.333 1.333 1.333h18.667c.733 0 1.333-.6 1.333-1.333V24c0-3.547-7.107-5.333-10.667-5.333z"/></symbol><symbol id="icon-phone" viewBox="0 0 32 32"><path d="m24.882 19.773-3.268-.373a2.561 2.561 0 0 0-2.11.733L17.137 22.5a19.357 19.357 0 0 1-8.478-8.478l2.38-2.38a2.561 2.561 0 0 0 .733-2.11l-.373-3.242a2.575 2.575 0 0 0-2.56-2.277H6.613c-1.454 0-2.663 1.209-2.573 2.663.682 10.987 9.469 19.761 20.443 20.443 1.454.09 2.663-1.119 2.663-2.573V22.32a2.549 2.549 0 0 0-2.264-2.547z"/></symbol><symbol id="icon-menu" viewBox="0 0 48 32"><path d="M0 5.333V0h48v5.333H0zm0 13.334h48v-5.333H0v5.333zM0 32h48v-5.333H0V32z"/></symbol></defs></svg><svg xmlns="http://www.w3.org/2000/svg" width="24" height="24"><path fill="none" d="M0 0h24v24H0z"/><path fill="#4285F4" d="M12 15c1.66 0 2.99-1.34 2.99-3L15 5c0-1.66-1.34-3-3-3S9 3.34 9 5v7c0 1.66 1.34 3 3 3z"/><path fill="#34A853" d="M11 18.92h2V22h-2z"/><path fill="#F4B400" d="M7 12H5c0 1.93.78 3.68 2.05 4.95l1.41-1.41C7.56 14.63 7 13.38 7 12z"/><path fill="#EA4335" d="M12 17c-1.38 0-2.63-.56-3.54-1.47l-1.41 1.41A6.99 6.99 0 0 0 12.01 19c3.87 0 6.98-3.14 6.98-7h-2c0 2.76-2.23 5-4.99 5z"/></svg><svg xmlns="http://www.w3.org/2000/svg" viewBox="0 0 24 24"><path d="M15.5 14h-.79l-.28-.27A6.471 6.471 0 0 0 16 9.5 6.5 6.5 0 1 0 9.5 16c1.61 0 3.09-.59 4.23-1.57l.27.28v.79l5 4.99L20.49 19l-4.99-5zm-6 0C7.01 14 5 11.99 5 9.5S7.01 5 9.5 5 14 7.01 14 9.5 11.99 14 9.5 14z"/></svg><svg xmlns="http://www.w3.org/2000/svg" width="576" height="512"><path d="M544 64H32C14.4 64 0 78.4 0 96v320c0 17.6 14.4 32 32 32h512c17.6 0 32-14.4 32-32V96c0-17.6-14.4-32-32-32zm-224 64h64v64h-64v-64zm96 96v64h-64v-64h64zm-192-96h64v64h-64v-64zm96 96v64h-64v-64h64zm-192-96h64v64h-64v-64zm96 96v64h-64v-64h64zM64 128h32v64H64v-64zm0 96h64v64H64v-64zm32 160H64v-64h32v64zm288 0H128v-64h256v64zm128 0h-96v-64h96v64zm0-96h-64v-64h64v64zm0-96h-96v-64h96v64z"/></svg>