<svg aria-hidden="true" style="position: absolute; width: 0; height: 0; overflow: hidden;" version="1.1" xmlns="http://www.w3.org/2000/svg" xmlns:xlink="http://www.w3.org/1999/xlink">
<defs>
<symbol id="icomoon-ignore" viewBox="0 0 576 512">
<path d="M544 64h-512c-17.6 0-32 14.4-32 32v320c0 17.6 14.4 32 32 32h512c17.6 0 32-14.4 32-32v-320c0-17.6-14.4-32-32-32zM320 128h64v64h-64v-64zM416 224v64h-64v-64h64zM224 128h64v64h-64v-64zM320 224v64h-64v-64h64zM128 128h64v64h-64v-64zM224 224v64h-64v-64h64zM64 128h32v64h-32v-64zM64 224h64v64h-64v-64zM96 384h-32v-64h32v64zM384 384h-256v-64h256v64zM512 384h-96v-64h96v64zM512 288h-64v-64h64v64zM512 192h-96v-64h96v64z"></path>
</symbol>
<symbol id="icon-search" viewBox="0 0 24 24">
 <path d="M15.5 14h-.79l-.28-.27A6.471 6.471 0 0 0 16 9.5 6.5 6.5 0 1 0 9.5 16c1.61 0 3.09-.59 4.23-1.57l.27.28v.79l5 4.99L20.49 19l-4.99-5zm-6 0C7.01 14 5 11.99 5 9.5S7.01 5 9.5 5 14 7.01 14 9.5 11.99 14 9.5 14z"></path>
</symbol>
<symbol id="icon-dictaphone" viewBox="0 0 32 32">
<path fill="none" d="M0 0h24v24H0z"/><path fill="#4285F4" d="M12 15c1.66 0 2.99-1.34 2.99-3L15 5c0-1.66-1.34-3-3-3S9 3.34 9 5v7c0 1.66 1.34 3 3 3z"/><path fill="#34A853" d="M11 18.92h2V22h-2z"/><path fill="#F4B400" d="M7 12H5c0 1.93.78 3.68 2.05 4.95l1.41-1.41C7.56 14.63 7 13.38 7 12z"/><path fill="#EA4335" d="M12 17c-1.38 0-2.63-.56-3.54-1.47l-1.41 1.41A6.99 6.99 0 0 0 12.01 19c3.87 0 6.98-3.14 6.98-7h-2c0 2.76-2.23 5-4.99 5z"/>
</symbol>
<symbol id="icon-email" viewBox="0 0 32 32">
<path d="M26.667 5.333h-21.333c-1.467 0-2.653 1.2-2.653 2.667l-0.013 16c0 1.467 1.2 2.667 2.667 2.667h21.333c1.467 0 2.667-1.2 2.667-2.667v-16c0-1.467-1.2-2.667-2.667-2.667zM26.133 11l-9.427 5.893c-0.427 0.267-0.987 0.267-1.413 0l-9.427-5.893c-0.333-0.213-0.533-0.573-0.533-0.96 0-0.893 0.973-1.427 1.733-0.96l8.933 5.587 8.933-5.587c0.76-0.467 1.733 0.067 1.733 0.96 0 0.387-0.2 0.747-0.533 0.96z"></path>
</symbol>
<symbol id="icon-person" viewBox="0 0 32 32">
<path d="M16 16c2.947 0 5.333-2.387 5.333-5.333s-2.387-5.333-5.333-5.333c-2.947 0-5.333 2.387-5.333 5.333s2.387 5.333 5.333 5.333zM16 18.667c-3.56 0-10.667 1.787-10.667 5.333v1.333c0 0.733 0.6 1.333 1.333 1.333h18.667c0.733 0 1.333-0.6 1.333-1.333v-1.333c0-3.547-7.107-5.333-10.667-5.333z"></path>
</symbol>
<symbol id="icon-phone" viewBox="0 0 32 32">
<path d="M24.882 19.773l-3.268-0.373c-0.785-0.090-1.557 0.18-2.11 0.733l-2.367 2.367c-3.641-1.853-6.626-4.825-8.478-8.478l2.38-2.38c0.553-0.553 0.823-1.325 0.733-2.11l-0.373-3.242c-0.154-1.299-1.248-2.277-2.56-2.277h-2.226c-1.454 0-2.663 1.209-2.573 2.663 0.682 10.987 9.469 19.761 20.443 20.443 1.454 0.090 2.663-1.119 2.663-2.573v-2.226c0.013-1.3-0.965-2.393-2.264-2.547z"></path>
</symbol>
<symbol id="icon-menu" viewBox="0 0 48 32">
<path d="M0 5.333v-5.333h48v5.333h-48zM0 18.667h48v-5.333h-48v5.333zM0 32h48v-5.333h-48v5.333z"></path>
</symbol>
</defs>
</svg>

  <svg xmlns="http://www.w3.org/2000/svg" width="24" height="24"><path fill="none" d="M0 0h24v24H0z"/><path fill="#4285F4" d="M12 15c1.66 0 2.99-1.34 2.99-3L15 5c0-1.66-1.34-3-3-3S9 3.34 9 5v7c0 1.66 1.34 3 3 3z"/><path fill="#34A853" d="M11 18.92h2V22h-2z"/><path fill="#F4B400" d="M7 12H5c0 1.93.78 3.68 2.05 4.95l1.41-1.41C7.56 14.63 7 13.38 7 12z"/><path fill="#EA4335" d="M12 17c-1.38 0-2.63-.56-3.54-1.47l-1.41 1.41A6.99 6.99 0 0 0 12.01 19c3.87 0 6.98-3.14 6.98-7h-2c0 2.76-2.23 5-4.99 5z"/></svg>







 <svg
              focusable="false"
              xmlns="http://www.w3.org/2000/svg"
              viewBox="0 0 24 24"
            >
              <path
                d="M15.5 14h-.79l-.28-.27A6.471 6.471 0 0 0 16 9.5 6.5 6.5 0 1 0 9.5 16c1.61 0 3.09-.59 4.23-1.57l.27.28v.79l5 4.99L20.49 19l-4.99-5zm-6 0C7.01 14 5 11.99 5 9.5S7.01 5 9.5 5 14 7.01 14 9.5 11.99 14 9.5 14z"
              ></path>
            </svg>









<svg version="1.1" xmlns="http://www.w3.org/2000/svg" width="576" height="512" viewBox="0 0 576 512">
<g id="icomoon-ignore">
</g>
<path d="M544 64h-512c-17.6 0-32 14.4-32 32v320c0 17.6 14.4 32 32 32h512c17.6 0 32-14.4 32-32v-320c0-17.6-14.4-32-32-32zM320 128h64v64h-64v-64zM416 224v64h-64v-64h64zM224 128h64v64h-64v-64zM320 224v64h-64v-64h64zM128 128h64v64h-64v-64zM224 224v64h-64v-64h64zM64 128h32v64h-32v-64zM64 224h64v64h-64v-64zM96 384h-32v-64h32v64zM384 384h-256v-64h256v64zM512 384h-96v-64h96v64zM512 288h-64v-64h64v64zM512 192h-96v-64h96v64z"></path>
</svg>
